<svg width="96" height="96" xmlns="http://www.w3.org/2000/svg" xmlns:xlink="http://www.w3.org/1999/xlink" xml:space="preserve" overflow="hidden"><g transform="translate(-509 -264)"><path d="M590 315 583.1 303 583.1 302.5C583.7 285.9 570.7 272 554.1 271.4 537.5 270.8 523.6 283.7 523 300.3 523 301 523 301.8 523 302.5 523 312 527.3 320.9 534.8 326.7L534.8 352 566.4 352 566.4 340 571.3 340C577.8 340 583.1 334.7 583.1 328.2 583.1 328.1 583.1 328.1 583.1 328L583.1 322 587.5 322C590.1 321.7 592.4 318.7 590 315ZM527.5 292.5 533 292.5 533 288.5C531.9 287.7 531.7 286.1 532.5 285 533.3 283.9 534.9 283.7 536 284.5 537.1 285.3 537.3 286.9 536.5 288 536.4 288.2 536.2 288.4 536 288.5L536 292.5 540 292.5 540 299.5C541.1 300.3 541.3 301.9 540.5 303 539.7 304.1 538.1 304.3 537 303.5 535.9 302.7 535.7 301.1 536.5 300 536.6 299.8 536.8 299.6 537 299.5L537 295.5 526.6 295.5C526.9 294.5 527.1 293.5 527.5 292.5ZM555.3 309.4C553.9 309.4 552.8 308.3 552.8 306.9 552.8 306.8 552.8 306.6 552.8 306.5L550.2 303.9 546 308.1 546 315.5C547.1 316.3 547.3 317.9 546.5 319 545.7 320.1 544.1 320.3 543 319.5 541.9 318.7 541.7 317.1 542.5 316 542.6 315.8 542.8 315.6 543 315.5L543 314.5 536.3 314.5 531.6 309C530.2 309.1 529 308.1 528.9 306.7 528.8 305.3 529.8 304.1 531.2 304 532.6 303.9 533.8 304.9 533.9 306.3 533.9 306.5 533.9 306.8 533.9 307L537.7 311.5 543 311.5 543 306.9 548.1 301.8 545 298.6 545 280.5C543.9 279.7 543.7 278.1 544.5 277 545.3 275.9 546.9 275.7 548 276.5 549.1 277.3 549.3 278.9 548.5 280 548.4 280.2 548.2 280.4 548 280.5L548 283.5 556 283.5 556 290.5C557.1 291.3 557.3 292.9 556.5 294 555.7 295.1 554.1 295.3 553 294.5 551.9 293.7 551.7 292.1 552.5 291 552.6 290.8 552.8 290.6 553 290.5L553 286.5 548 286.5 548 297.4 555 304.4C555.1 304.4 555.2 304.4 555.3 304.4 556.7 304.4 557.8 305.5 557.8 306.9 557.8 308.3 556.7 309.4 555.3 309.4L555.3 309.4ZM567.5 289.2C566.1 289.2 565 288.1 565 286.7 565 286.6 565 286.6 565 286.5L561 282.9 561 275.6C562 275.9 563 276.3 564 276.7L564 281.6 567 284.3C567.2 284.3 567.3 284.3 567.5 284.3 568.9 284.3 570 285.4 570 286.8 570 288.2 568.9 289.2 567.5 289.2L567.5 289.2Z"/></g></svg>