<svg width="96" height="96" xmlns="http://www.w3.org/2000/svg" xmlns:xlink="http://www.w3.org/1999/xlink" xml:space="preserve" overflow="hidden"><g transform="translate(-354 -264)"><path d="M430 282C430 286.418 417.464 290 402 290 386.536 290 374 286.418 374 282 374 277.582 386.536 274 402 274 417.464 274 430 277.582 430 282Z"/><path d="M422 302C420.8 302 420 301.2 420 300 420 298.8 420.8 298 422 298 423.2 298 424 298.8 424 300 424 301.2 423.2 302 422 302ZM402 294C386.6 294 374 290.4 374 286L374 302C374 306.4 386.6 310 402 310 417.4 310 430 306.4 430 302L430 286C430 290.4 417.4 294 402 294Z"/><path d="M422 322C420.8 322 420 321.2 420 320 420 318.8 420.8 318 422 318 423.2 318 424 318.8 424 320 424 321.2 423.2 322 422 322ZM402 314C386.6 314 374 310.4 374 306L374 322C374 326.4 386.6 330 402 330 417.4 330 430 326.4 430 322L430 306C430 310.4 417.4 314 402 314Z"/><path d="M422 342C420.8 342 420 341.2 420 340 420 338.8 420.8 338 422 338 423.2 338 424 338.8 424 340 424 341.2 423.2 342 422 342ZM402 334C386.6 334 374 330.4 374 326L374 342C374 346.4 386.6 350 402 350 417.4 350 430 346.4 430 342L430 326C430 330.4 417.4 334 402 334Z"/></g></svg>