<svg width="96" height="96" xmlns="http://www.w3.org/2000/svg" xmlns:xlink="http://www.w3.org/1999/xlink" xml:space="preserve" overflow="hidden"><g transform="translate(-663 -264)"><path d="M743 284C743.003 280.134 739.872 276.997 736.006 276.994 732.14 276.991 729.003 280.122 729 283.988 728.998 286.358 730.195 288.567 732.18 289.86L727 305 727 305C725.57 304.998 724.174 305.435 723 306.25L712.56 298.42C713.899 294.793 712.044 290.768 708.417 289.429 704.79 288.09 700.765 289.945 699.426 293.572 698.309 296.598 699.405 299.996 702.08 301.8L695.41 323 695 323C691.134 322.991 687.993 326.117 687.983 329.983 687.974 333.849 691.101 336.991 694.967 337 698.833 337.009 701.974 333.883 701.983 330.017 701.989 327.802 700.945 325.715 699.17 324.39L705.9 303 706 303C707.499 302.997 708.957 302.513 710.16 301.62L720.51 309.37C720.177 310.207 720.004 311.099 720 312 719.998 315.866 723.131 319.001 726.997 319.003 730.863 319.004 733.998 315.871 734 312.005 734.001 309.646 732.813 307.444 730.84 306.15L736 291C739.866 291 743 287.866 743 284Z"/><path d="M683 277 677 277 677 347 746 347 746 341 683 341 683 277Z"/></g></svg>