<svg width="96" height="96" xmlns="http://www.w3.org/2000/svg" xmlns:xlink="http://www.w3.org/1999/xlink" xml:space="preserve" overflow="hidden"><g transform="translate(-189 -264)"><path d="M267.2 313.4C272.2 313.4 276.2 309.4 276.2 304.4 276.2 299.4 272.2 295.4 267.2 295.4 262.2 295.4 258.2 299.4 258.2 304.4 258.2 304.9 258.2 305.3 258.3 305.8L247.9 310.1C246 306.8 242.8 304.5 239 303.9L239 292.8C243.8 291.7 246.9 286.9 245.8 282 244.7 277.2 239.9 274.1 235 275.2 230.1 276.3 227.1 281.1 228.2 286 229 289.4 231.6 292 235 292.8L235 304C231.3 304.6 228.1 306.8 226.2 310.1L216.1 305.9C216.9 301 213.5 296.4 208.6 295.6 203.6 294.8 199 298.1 198.3 303 197.5 307.9 200.9 312.5 205.8 313.3 209.2 313.8 212.6 312.4 214.6 309.6L224.8 313.8C224.1 317.3 224.9 320.9 227 323.8L218.7 332.2C214.5 329.6 208.9 330.9 206.3 335.1 203.7 339.3 205 344.9 209.2 347.5 213.4 350.1 219 348.8 221.6 344.6 223.4 341.6 223.4 337.9 221.5 335L229.8 326.7C234.1 329.7 239.8 329.7 244 326.7L252.3 335C249.6 339.2 250.8 344.7 255 347.4 259.2 350.1 264.7 348.9 267.4 344.7 270.1 340.5 268.9 335 264.7 332.3 261.8 330.4 258 330.4 255 332.2L247 323.8C248.6 321.6 249.5 319 249.5 316.3 249.5 315.5 249.4 314.7 249.3 313.9L259.8 309.6C261.5 311.9 264.2 313.4 267.2 313.4ZM265.1 303.3C265.1 303.3 267.4 302.2 267.4 300.3 267.4 299.9 267.7 299.5 268.1 299.5 268.5 299.5 268.9 299.8 268.9 300.2 268.9 300.2 268.9 300.2 268.9 300.3 268.9 301.1 268.8 301.9 268.5 302.7 268.5 302.9 268.7 303.1 268.9 303.1L271.3 303.1C271.7 303.1 272.1 303.4 272.1 303.9 272.1 304.2 271.9 304.5 271.6 304.6 271.9 304.9 271.9 305.4 271.6 305.7 271.5 305.8 271.4 305.9 271.2 305.9 271.3 306 271.4 306.2 271.4 306.4 271.4 306.8 271.1 307.2 270.6 307.2L270.5 307.2C270.6 307.3 270.7 307.5 270.7 307.7 270.7 308.1 270.4 308.5 269.9 308.5L267.6 308.5C265.9 308.5 265.8 307.5 264.9 307.5L264.9 303.3ZM262.9 302.7 263.8 302.7C264.1 302.7 264.3 302.9 264.3 303.2L264.3 307.5C264.3 307.8 264.1 308 263.8 308L262.9 308 262.9 302.7ZM211.1 305.2 208.1 305.2 208.1 308.2 206.1 308.2 206.1 305.2 203.1 305.2 203.1 303.2 206.1 303.2 206.1 300.2 208.1 300.2 208.1 303.2 211.1 303.2 211.1 305.2ZM211 342.6C211 342.9 210.8 343.1 210.5 343.1L209.6 343.1 209.6 337.8 210.5 337.8C210.8 337.8 211 338 211 338.3L211 342.6ZM218.5 340.2C218.5 340.6 218.2 340.9 217.9 340.9 218 341 218.1 341.2 218.1 341.4 218.1 341.8 217.7 342.2 217.3 342.2 217.4 342.3 217.5 342.5 217.5 342.7 217.5 343.1 217.2 343.5 216.7 343.5L214.4 343.5C212.7 343.5 212.6 342.5 211.7 342.5L211.7 338.4C211.7 338.4 214 337.3 214 335.4 214 335 214.3 334.6 214.7 334.6 215.1 334.6 215.5 334.9 215.5 335.3 215.5 335.3 215.5 335.3 215.5 335.4 215.5 336.2 215.4 337 215.1 337.8 215.1 338 215.3 338.2 215.5 338.2L218 338.2C218.4 338.2 218.8 338.5 218.8 339 218.8 339.3 218.6 339.6 218.3 339.7 218.4 339.8 218.5 340 218.5 340.2ZM232.6 282.5C232.6 280.7 235.4 278.7 237.1 282 238.8 278.7 241.6 280.7 241.6 282.5 241.6 285.3 237.1 288.7 237.1 288.7 237.1 288.7 232.6 285.2 232.6 282.5ZM233.5 312.1C233.5 310.2 235.1 308.6 237 308.6 238.9 308.6 240.5 310.2 240.5 312.1 240.5 314 238.9 315.6 237 315.6 235.1 315.6 233.5 314.1 233.5 312.1L233.5 312.1ZM244 322.7 230 322.7 230 320C230 319.5 230.3 318.9 230.7 318.6 231.7 317.9 232.9 317.3 234.1 316.9 235 316.6 236 316.5 237 316.5 238 316.5 239 316.6 239.9 316.9 241.1 317.2 242.3 317.8 243.3 318.6 243.7 318.9 244 319.5 244 320L244 322.7ZM260.1 337.7C261.8 334.4 264.6 336.4 264.6 338.2 264.6 341 260.1 344.4 260.1 344.4 260.1 344.4 255.6 341 255.6 338.2 255.6 336.4 258.4 334.4 260.1 337.7Z"/></g></svg>