<svg width="96" height="96" xmlns="http://www.w3.org/2000/svg" xmlns:xlink="http://www.w3.org/1999/xlink" xml:space="preserve" overflow="hidden"><g transform="translate(-801 -264)"><path d="M811 298 818 298 818 302 811 302Z"/><path d="M811 290 818 290 818 294 811 294Z"/><path d="M811 306 818 306 818 310 811 310Z"/><path d="M811 330 818 330 818 334 811 334Z"/><path d="M811 322 818 322 818 326 811 326Z"/><path d="M811 314 818 314 818 318 811 318Z"/><path d="M880 322 887 322 887 326 880 326Z"/><path d="M880 330 887 330 887 334 880 334Z"/><path d="M880 314 887 314 887 318 880 318Z"/><path d="M880 290 887 290 887 294 880 294Z"/><path d="M880 306 887 306 887 310 880 310Z"/><path d="M880 298 887 298 887 302 880 302Z"/><path d="M851 274 855 274 855 281 851 281Z"/><path d="M867 274 871 274 871 281 867 281Z"/><path d="M859 274 863 274 863 281 859 281Z"/><path d="M843 274 847 274 847 281 843 281Z"/><path d="M827 274 831 274 831 281 827 281Z"/><path d="M835 274 839 274 839 281 835 281Z"/><path d="M835 343 839 343 839 350 835 350Z"/><path d="M827 343 831 343 831 350 827 350Z"/><path d="M843 343 847 343 847 350 843 350Z"/><path d="M851 343 855 343 855 350 851 350Z"/><path d="M859 343 863 343 863 350 859 350Z"/><path d="M867 343 871 343 871 350 867 350Z"/><path d="M836 299 862 299 862 325 836 325Z"/><path d="M872 285 826 285C823.791 285 822 286.791 822 289L822 335C822 337.209 823.791 339 826 339L872 339C874.209 339 876 337.209 876 335L876 289C876 286.791 874.209 285 872 285ZM866 329 832 329 832 295 866 295Z"/></g></svg>